<?xml version="1.0" encoding="iso-8859-1"?>
<!-- Generator: Adobe Illustrator 19.0.0, SVG Export Plug-In . SVG Version: 6.00 Build 0)  -->
<svg version="1.1" id="Layer_1" xmlns="http://www.w3.org/2000/svg" xmlns:xlink="http://www.w3.org/1999/xlink" x="0px" y="0px"
	 viewBox="0 0 512 512" style="enable-background:new 0 0 512 512;" xml:space="preserve">
<g>
	<circle style="fill:#FFB300;" cx="256.001" cy="20.41" r="20.41"/>
	<polyline style="fill:#FFB300;" points="433.895,260.201 433.895,512 78.021,512 78.021,260.201 	"/>
</g>
<g>
	<polyline style="fill:#FF8F00;" points="126.742,260.201 126.742,512 78.021,512 78.021,260.201 	"/>
	<polyline style="fill:#FF8F00;" points="433.895,250.751 433.895,276.215 78.021,276.215 78.021,250.751 	"/>
</g>
<g>
	<polyline style="fill:#00838F;" points="434.441,312.229 335.101,312.229 335.101,289.305 434.441,289.305 	"/>
	<polyline style="fill:#00838F;" points="434.441,469.425 335.101,469.425 335.101,446.501 434.441,446.501 	"/>
	<polyline style="fill:#00838F;" points="175.722,312.229 76.382,312.229 76.382,289.305 175.722,289.305 	"/>
	<polyline style="fill:#00838F;" points="175.722,469.425 76.382,469.425 76.382,446.501 175.722,446.501 	"/>
</g>
<polyline style="fill:#4F5E60;" points="202.468,512 202.468,286.655 309.448,286.655 309.448,512 "/>
<path style="fill:#00838F;" d="M28.5,221.753C86.247,154.222,155.565,91.365,235.646,36.315c12.254-8.424,28.462-8.424,40.716,0
	c80.081,55.05,149.398,117.907,207.146,185.437c12.928,15.118,2.098,38.452-17.794,38.452h-209.71H46.294
	C26.402,260.206,15.572,236.871,28.5,221.753z"/>
<path style="fill:#00838F;" d="M235.644,36.319c6.112-4.207,13.233-6.316,20.342-6.316c-3.345,0-6.667,2.109-9.547,6.316
	c-37.623,55.051-70.2,117.903-97.323,185.438c-6.078,15.115-0.986,38.451,8.357,38.451H46.294c-19.9,0-30.729-23.336-17.802-38.451
	C86.241,154.222,155.557,91.37,235.644,36.319z"/>
<g>
</g>
<g>
</g>
<g>
</g>
<g>
</g>
<g>
</g>
<g>
</g>
<g>
</g>
<g>
</g>
<g>
</g>
<g>
</g>
<g>
</g>
<g>
</g>
<g>
</g>
<g>
</g>
<g>
</g>
</svg>
